<svg id="eye_shield_linear" data-name="eye/shield/linear" xmlns="http://www.w3.org/2000/svg" width="24" height="24" viewBox="0 0 24 24">
  <g id="vuesax_linear_shield" data-name="vuesax/linear/shield">
    <g id="shield">
      <path id="Vector" d="M7.08.233,2.09,2.113A3.47,3.47,0,0,0,0,5.122v7.43a4.862,4.862,0,0,0,1.73,3.44l4.3,3.21a4.552,4.552,0,0,0,5.14,0l4.3-3.21a4.862,4.862,0,0,0,1.73-3.44V5.122A3.472,3.472,0,0,0,15.11,2.1L10.12.233A5.085,5.085,0,0,0,7.08.233Z" transform="translate(3.41 1.998)" fill="none" stroke="#a86a24" stroke-linecap="round" stroke-linejoin="round" stroke-width="2"/>
      <path id="Vector-2" data-name="Vector" d="M0,0H24V24H0Z" transform="translate(24 24) rotate(180)" fill="none" opacity="0"/>
    </g>
  </g>
</svg>
